<svg width="24" height="25" viewBox="0 0 24 25" fill="none" xmlns="http://www.w3.org/2000/svg">
<g clip-path="url(#clip0_528_6224)">
<path d="M12 23C9.21523 23 6.54451 21.8938 4.57538 19.9246C2.60625 17.9555 1.5 15.2848 1.5 12.5C1.5 9.71523 2.60625 7.04451 4.57538 5.07538C6.54451 3.10625 9.21523 2 12 2C14.7848 2 17.4555 3.10625 19.4246 5.07538C21.3938 7.04451 22.5 9.71523 22.5 12.5C22.5 15.2848 21.3938 17.9555 19.4246 19.9246C17.4555 21.8938 14.7848 23 12 23ZM12 24.5C15.1826 24.5 18.2348 23.2357 20.4853 20.9853C22.7357 18.7348 24 15.6826 24 12.5C24 9.3174 22.7357 6.26516 20.4853 4.01472C18.2348 1.76428 15.1826 0.5 12 0.5C8.8174 0.5 5.76516 1.76428 3.51472 4.01472C1.26428 6.26516 0 9.3174 0 12.5C0 15.6826 1.26428 18.7348 3.51472 20.9853C5.76516 23.2357 8.8174 24.5 12 24.5Z" fill="black"/>
<path d="M7.75 14.7665C7.864 16.1975 8.995 17.312 11.023 17.444V18.5H11.923V17.4365C14.023 17.2895 15.25 16.1675 15.25 14.5385C15.25 13.058 14.311 12.2945 12.6325 11.8985L11.923 11.7305V8.855C12.823 8.957 13.396 9.449 13.534 10.13H15.112C14.998 8.7515 13.816 7.673 11.923 7.556V6.5H11.023V7.5785C9.2305 7.754 8.008 8.8325 8.008 10.358C8.008 11.708 8.917 12.566 10.4275 12.9185L11.023 13.0655V16.1165C10.1005 15.977 9.49 15.4715 9.352 14.7665H7.75ZM11.0155 11.5175C10.1305 11.312 9.6505 10.8935 9.6505 10.2635C9.6505 9.5585 10.168 9.0305 11.023 8.876V11.516L11.0155 11.5175ZM12.0535 13.307C13.129 13.556 13.6255 13.9595 13.6255 14.672C13.6255 15.485 13.0075 16.043 11.923 16.145V13.277L12.0535 13.307Z" fill="black"/>
</g>
<defs>
<clipPath id="clip0_528_6224">
<rect width="24" height="24" fill="white" transform="translate(0 0.5)"/>
</clipPath>
</defs>
</svg>
