<svg width="19" height="19" viewBox="0 0 19 19" fill="none" xmlns="http://www.w3.org/2000/svg">
<path d="M13.435 3.55957H5.56495C5.03452 3.55957 4.52581 3.77028 4.15074 4.14536C3.77567 4.52043 3.56495 5.02914 3.56495 5.55957V11.5596C3.56403 11.8225 3.61513 12.083 3.71531 12.326C3.81549 12.5691 3.96278 12.7899 4.14868 12.9758C4.33458 13.1617 4.55542 13.309 4.79849 13.4092C5.04156 13.5094 5.30205 13.5605 5.56495 13.5596H13.435C13.9654 13.5596 14.4741 13.3489 14.8492 12.9738C15.2242 12.5987 15.435 12.09 15.435 11.5596V5.55957C15.4334 5.02962 15.2221 4.52184 14.8474 4.14711C14.4727 3.77238 13.9649 3.56115 13.435 3.55957ZM14.435 11.5596C14.435 11.8248 14.3296 12.0791 14.1421 12.2667C13.9545 12.4542 13.7002 12.5596 13.435 12.5596H5.56495C5.43326 12.5609 5.30262 12.536 5.18069 12.4862C5.05876 12.4364 4.94799 12.3628 4.85487 12.2697C4.76174 12.1765 4.68813 12.0658 4.63835 11.9438C4.58857 11.8219 4.56362 11.6913 4.56495 11.5596V5.55957C4.56495 5.29435 4.67031 5.04 4.85785 4.85246C5.04538 4.66493 5.29974 4.55957 5.56495 4.55957H13.435C13.7002 4.55957 13.9545 4.66493 14.1421 4.85246C14.3296 5.04 14.435 5.29435 14.435 5.55957V11.5596Z" fill="black"/>
<path d="M15.9349 0.55957H3.06494C2.40247 0.561417 1.76766 0.825403 1.29921 1.29384C0.830774 1.76229 0.566789 2.3971 0.564941 3.05957V14.0596C0.564941 14.7226 0.828333 15.3585 1.29717 15.8273C1.76602 16.2962 2.4019 16.5596 3.06494 16.5596V16.9396C3.06494 17.3374 3.22298 17.7189 3.50428 18.0002C3.78559 18.2815 4.16712 18.4396 4.56494 18.4396H5.99494C6.39277 18.4396 6.7743 18.2815 7.0556 18.0002C7.33691 17.7189 7.49494 17.3374 7.49494 16.9396V16.5596H11.4949V16.9396C11.4949 17.3374 11.653 17.7189 11.9343 18.0002C12.2156 18.2815 12.5971 18.4396 12.9949 18.4396H14.4349C14.8328 18.4396 15.2143 18.2815 15.4956 18.0002C15.7769 17.7189 15.9349 17.3374 15.9349 16.9396V16.5596C16.598 16.5596 17.2339 16.2962 17.7027 15.8273C18.1715 15.3585 18.4349 14.7226 18.4349 14.0596V3.05957C18.4331 2.3971 18.1691 1.76229 17.7007 1.29384C17.2322 0.825403 16.5974 0.561417 15.9349 0.55957ZM6.49494 16.9396C6.49494 17.0722 6.44226 17.1994 6.3485 17.2931C6.25473 17.3869 6.12755 17.4396 5.99494 17.4396H4.56494C4.43233 17.4396 4.30516 17.3869 4.21139 17.2931C4.11762 17.1994 4.06494 17.0722 4.06494 16.9396V16.5596H6.49494V16.9396ZM14.9349 16.9396C14.9349 17.0722 14.8823 17.1994 14.7885 17.2931C14.6947 17.3869 14.5675 17.4396 14.4349 17.4396H12.9999C12.868 17.4375 12.742 17.3842 12.6487 17.2908C12.5553 17.1975 12.502 17.0715 12.4999 16.9396V16.5596H14.9399L14.9349 16.9396ZM17.4349 14.0596C17.4349 14.4574 17.2769 14.8389 16.9956 15.1202C16.7143 15.4015 16.3328 15.5596 15.9349 15.5596H3.06494C2.66712 15.5596 2.28559 15.4015 2.00428 15.1202C1.72298 14.8389 1.56494 14.4574 1.56494 14.0596V3.05957C1.56494 2.66175 1.72298 2.28021 2.00428 1.99891C2.28559 1.71761 2.66712 1.55957 3.06494 1.55957H15.9349C16.3328 1.55957 16.7143 1.71761 16.9956 1.99891C17.2769 2.28021 17.4349 2.66175 17.4349 3.05957V14.0596Z" fill="black"/>
<path d="M11.7648 8.05966H11.1548C11.0793 7.7828 10.9332 7.53032 10.7307 7.32696C10.5282 7.12361 10.2764 6.97636 9.99984 6.89965V6.28965C9.99695 6.15978 9.94271 6.03634 9.849 5.94637C9.75528 5.8564 9.62973 5.80724 9.49984 5.80966C9.37063 5.80955 9.24639 5.85948 9.15317 5.94896C9.05996 6.03845 9.00501 6.16054 8.99984 6.28965V6.89965C8.72239 6.9756 8.46951 7.12252 8.26611 7.32592C8.0627 7.52933 7.91579 7.78221 7.83984 8.05966H7.22984C7.10073 8.06482 6.97863 8.11977 6.88915 8.21299C6.79966 8.3062 6.74974 8.43044 6.74984 8.55966C6.74743 8.68954 6.79659 8.81509 6.88655 8.90881C6.97652 9.00253 7.09996 9.05677 7.22984 9.05966H7.83984C7.91579 9.3371 8.0627 9.58998 8.26611 9.79339C8.46951 9.99679 8.72239 10.1437 8.99984 10.2197V10.8397C9.00479 10.9679 9.06001 11.0891 9.15356 11.1771C9.2471 11.265 9.37148 11.3126 9.49984 11.3097C9.56361 11.3119 9.62719 11.3015 9.68691 11.2791C9.74664 11.2566 9.80133 11.2226 9.84782 11.1789C9.89431 11.1352 9.93168 11.0827 9.95777 11.0245C9.98387 10.9663 9.99816 10.9034 9.99984 10.8397V10.2197C10.2788 10.1469 10.5334 10.001 10.7373 9.79712C10.9412 9.59322 11.087 9.33866 11.1598 9.05966H11.7698C11.8344 9.05902 11.8982 9.04551 11.9574 9.0199C12.0167 8.9943 12.0702 8.95712 12.1149 8.91056C12.1597 8.86399 12.1946 8.80896 12.2178 8.74871C12.2409 8.68845 12.2518 8.62418 12.2498 8.55966C12.251 8.49492 12.2394 8.4306 12.2156 8.37038C12.1919 8.31015 12.1564 8.25523 12.1114 8.20876C12.0663 8.16229 12.0125 8.12519 11.953 8.0996C11.8935 8.07401 11.8296 8.06044 11.7648 8.05966ZM9.49984 9.30966C9.3515 9.30966 9.2065 9.26567 9.08316 9.18326C8.95983 9.10085 8.8637 8.98371 8.80693 8.84667C8.75017 8.70962 8.73531 8.55882 8.76425 8.41334C8.79319 8.26785 8.86462 8.13421 8.96951 8.02932C9.0744 7.92444 9.20804 7.85301 9.35352 7.82407C9.49901 7.79513 9.64981 7.80998 9.78685 7.86674C9.9239 7.92351 10.041 8.01964 10.1234 8.14298C10.2059 8.26631 10.2498 8.41132 10.2498 8.55966C10.25 8.65818 10.2307 8.75577 10.193 8.84682C10.1554 8.93788 10.1001 9.02061 10.0305 9.09028C9.96079 9.15995 9.87806 9.21519 9.78701 9.25283C9.69596 9.29048 9.59837 9.30979 9.49984 9.30966Z" fill="black"/>
</svg>
