<svg width="24" height="24" viewBox="0 0 24 24" fill="none" xmlns="http://www.w3.org/2000/svg">
<path d="M21.75 12C21.75 17.3848 17.3848 21.75 12 21.75C6.61522 21.75 2.25 17.3848 2.25 12C2.25 6.61522 6.61522 2.25 12 2.25C17.3848 2.25 21.75 6.61522 21.75 12Z" fill="#FF9B00" stroke="black" stroke-width="0.5"/>
<path d="M13.06 12.0004L15.36 9.70035C15.65 9.41035 15.65 8.93035 15.36 8.64035C15.07 8.35035 14.59 8.35035 14.3 8.64035L12 10.9404L9.69998 8.64035C9.40998 8.35035 8.92999 8.35035 8.63999 8.64035C8.34999 8.93035 8.34999 9.41035 8.63999 9.70035L10.94 12.0004L8.63999 14.3004C8.34999 14.5904 8.34999 15.0704 8.63999 15.3604C8.78999 15.5104 8.97999 15.5804 9.16999 15.5804C9.35999 15.5804 9.54998 15.5104 9.69998 15.3604L12 13.0604L14.3 15.3604C14.45 15.5104 14.64 15.5804 14.83 15.5804C15.02 15.5804 15.21 15.5104 15.36 15.3604C15.65 15.0704 15.65 14.5904 15.36 14.3004L13.06 12.0004Z" fill="black"/>
</svg>
